PathFileType   4   (X/Y/Z)
DataRate	CameraRate	NumFrames	NumMarkers	Units	OrigDataRate	OrigDataStartFrame	OrigNumFrames
120.0	120.0	5	37	mm	120.0	1	194
Frame#	Time	midhip	hip_r	hip_l	knee_r	knee_l	ankle_r	ankle_l	midasis	asis_r	asis_l	psis_r	psis_l	epicondLat_r	epicondLat_l	epicondMed_r	epicondMed_l	malleolusLat_r	malleolusLat_l	malleolusMedv_r	malleolusMedv_l	neck	subclavicle_r	subclavicle_l	sternalnotch	xyphoidprocess	thighwand_r	thighwand_l	upperleg1_r	upperleg1_l	upperleg2_r	upperleg2_l	shankwand_r	shankwand_l	lowerleg1_r	lowerleg1_l	toe_r	toe_l
 	 	X1	Y1	Z1	X2	Y2	Z2	X3	Y3	Z3	X4	Y4	Z4	X5	Y5	Z5	X6	Y6	Z6	X7	Y7	Z7	X8	Y8	Z8	X9	Y9	Z9	X10	Y10	Z10	X11	Y11	Z11	X12	Y12	Z12	X13	Y13	Z13	X14	Y14	Z14	X15	Y15	Z15	X16	Y16	Z16	X17	Y17	Z17	X18	Y18	Z18	X19	Y19	Z19	X20	Y20	Z20	X21	Y21	Z21	X22	Y22	Z22	X23	Y23	Z23	X24	Y24	Z24	X25	Y25	Z25	X26	Y26	Z26	X27	Y27	Z27	X28	Y28	Z28	X29	Y29	Z29	X30	Y30	Z30	X31	Y31	Z31	X32	Y32	Z32	X33	Y33	Z33	X34	Y34	Z34	X35	Y35	Z35	X36	Y36	Z36	X37	Y37	Z37

	1	0.37500	179.360	774.755	-276.813	154.064	776.922	-199.073	165.669	779.932	-354.240	145.037	396.171	-159.937	204.083	421.681	-325.572	-119.916	154.252	-167.790	231.403	58.605	-301.211	286.329	852.060	-265.770	277.061	849.656	-141.838	295.598	854.464	-389.702	38.836	920.790	-248.083	38.794	920.329	-302.498	140.420	403.575	-88.972	208.391	416.447	-396.750	162.819	390.021	-235.284	194.435	409.689	-240.716	-127.245	161.072	-130.614	215.664	55.002	-337.260	-112.487	158.992	-203.957	225.403	77.980	-261.380	72.853	1350.448	-281.423	197.766	1276.028	-244.047	194.785	1275.681	-326.385	178.537	1271.646	-296.988	225.785	1194.650	-296.917	303.553	559.611	-82.499	367.439	607.870	-333.514	268.479	578.651	-110.008	320.050	619.462	-346.415	247.026	503.448	-114.111	308.701	547.327	-338.405	41.577	189.303	-135.294	203.864	155.792	-412.433	7.996	227.052	-145.663	203.578	170.478	-367.868	-87.913	51.992	-171.294	335.094	46.764	-312.688
	2	0.38333	183.196	774.589	-278.055	157.904	776.635	-200.314	169.573	779.819	-355.473	154.759	395.476	-158.899	205.911	421.836	-326.251	-113.076	157.348	-167.323	231.712	58.568	-301.205	290.149	851.930	-266.874	280.829	849.387	-142.940	299.470	854.474	-390.809	42.575	920.403	-249.213	42.554	920.173	-303.602	150.324	403.221	-87.959	209.946	416.435	-397.432	172.277	388.248	-233.152	197.788	409.203	-241.304	-120.429	164.305	-130.178	215.873	54.961	-337.210	-104.111	160.764	-203.419	226.163	78.194	-261.461	77.009	1350.432	-282.470	201.273	1275.842	-245.198	198.826	1275.921	-327.173	182.468	1271.506	-298.028	229.530	1194.700	-298.117	311.483	561.709	-82.845	370.447	606.993	-335.117	275.903	579.880	-110.298	322.761	618.562	-347.913	255.464	503.805	-113.602	311.575	547.021	-339.794	48.939	190.218	-134.296	204.295	155.708	-412.747	17.997	228.895	-145.974	204.346	170.428	-368.206	-84.727	53.718	-170.983	335.197	46.671	-312.747
	3	0.39167	186.962	774.435	-279.212	161.652	776.369	-201.479	173.436	779.693	-356.626	164.581	394.953	-157.915	207.662	421.989	-326.882	-105.980	160.467	-166.862	232.020	58.544	-301.221	293.889	851.823	-267.875	284.475	849.167	-143.925	303.303	854.479	-391.825	46.240	919.998	-250.375	46.229	920.007	-304.725	160.329	403.020	-86.999	211.449	416.432	-398.065	182.804	386.785	-231.990	197.842	410.138	-243.258	-113.353	167.558	-129.746	216.073	54.936	-337.179	-92.662	166.000	-203.274	226.229	78.287	-261.431	80.941	1350.440	-283.465	204.782	1275.701	-246.371	202.640	1276.051	-328.431	186.331	1271.367	-299.068	233.143	1194.700	-299.487	319.409	563.927	-83.218	373.430	606.115	-336.582	283.194	581.151	-110.672	325.810	617.926	-349.303	264.240	504.578	-113.473	313.583	546.606	-341.412	56.541	191.301	-133.343	204.688	155.661	-413.033	35.136	231.223	-144.676	204.654	170.538	-368.297	-81.166	55.636	-170.620	335.299	46.601	-312.807
	4	0.40000	190.668	774.300	-280.276	165.319	776.133	-202.563	177.264	779.553	-357.695	174.505	394.608	-157.003	209.327	422.148	-327.463	-98.639	163.583	-166.424	232.308	58.531	-301.262	297.554	851.749	-268.778	288.008	849.016	-144.795	307.100	854.483	-392.761	49.832	919.579	-251.561	49.815	919.832	-305.866	170.432	402.975	-86.111	212.901	416.447	-398.646	194.650	386.029	-231.964	200.099	409.619	-245.302	-106.026	170.805	-129.336	216.251	54.928	-337.170	-85.522	168.069	-202.697	225.954	78.369	-261.383	84.648	1350.373	-284.306	208.805	1275.430	-247.638	206.482	1275.727	-329.577	190.116	1271.241	-300.086	237.009	1194.380	-300.706	327.317	566.261	-83.624	376.377	605.234	-337.885	290.456	582.489	-110.722	328.987	617.830	-349.846	273.705	505.876	-113.630	316.026	546.133	-342.832	64.387	192.541	-132.447	205.035	155.644	-413.289	42.175	232.717	-144.370	204.712	170.872	-368.285	-77.163	57.712	-170.226	335.402	46.557	-312.875
	5	0.40833	194.327	774.187	-281.240	168.915	775.935	-203.565	181.058	779.405	-358.681	184.529	394.437	-156.176	210.896	422.318	-327.992	-91.065	166.670	-166.028	232.563	58.526	-301.324	301.149	851.718	-269.590	291.439	848.943	-145.554	310.860	854.492	-393.626	53.354	919.157	-252.759	53.313	919.646	-307.025	180.630	403.080	-85.307	214.303	416.485	-399.172	207.979	384.114	-231.426	201.316	410.268	-246.209	-98.462	174.018	-128.967	216.394	54.934	-337.183	-77.648	171.088	-202.267	226.194	78.649	-261.497	88.061	1350.287	-285.241	212.857	1275.055	-248.701	210.469	1275.347	-330.603	193.859	1271.137	-301.078	241.057	1194.016	-301.770	335.197	568.711	-84.067	379.268	604.348	-339.005	298.107	583.819	-111.500	332.263	617.528	-350.668	283.376	507.184	-113.777	318.371	545.466	-343.795	72.472	193.917	-131.631	205.332	155.654	-413.518	50.630	234.732	-143.744	205.044	171.398	-368.490	-72.631	59.917	-169.823	335.504	46.538	-312.954
